<svg xmlns="http://www.w3.org/2000/svg" xmlns:xlink="http://www.w3.org/1999/xlink" width="500" zoomAndPan="magnify" viewBox="0 0 375 374.999991" height="500" preserveAspectRatio="xMidYMid meet" version="1.0"><defs><g/></defs><g fill="#000000" fill-opacity="1"><g transform="translate(70.739796, 36.350816)"><g><path d="M 20.84375 4.640625 L 11.3125 4.640625 C 7.90625 4.640625 5.390625 3.753906 3.765625 1.984375 C 2.140625 0.222656 1.328125 -2.0625 1.328125 -4.875 L 1.328125 -15.84375 C 1.328125 -17.28125 1.535156 -18.523438 1.953125 -19.578125 C 2.367188 -20.628906 2.976562 -21.503906 3.78125 -22.203125 L 8.859375 -26.46875 C 9.660156 -27.144531 10.6875 -27.648438 11.9375 -27.984375 C 13.1875 -28.328125 14.660156 -28.5 16.359375 -28.5 L 25.875 -28.5 C 26.5 -28.5 26.953125 -28.351562 27.234375 -28.0625 C 27.523438 -27.78125 27.671875 -27.328125 27.671875 -26.703125 L 27.671875 -21.96875 C 27.671875 -21.632812 27.625 -21.347656 27.53125 -21.109375 C 27.445312 -20.878906 27.3125 -20.6875 27.125 -20.53125 L 22.046875 -16.3125 C 21.941406 -16.207031 21.78125 -16.113281 21.5625 -16.03125 C 21.34375 -15.957031 21.101562 -15.921875 20.84375 -15.921875 L 16.046875 -15.921875 L 16.046875 -9.328125 C 16.046875 -8.785156 16.210938 -8.398438 16.546875 -8.171875 C 16.890625 -7.953125 17.382812 -7.84375 18.03125 -7.84375 L 25.875 -7.84375 C 26.5 -7.84375 26.953125 -7.695312 27.234375 -7.40625 C 27.523438 -7.125 27.671875 -6.671875 27.671875 -6.046875 L 27.671875 -1.40625 C 27.671875 -1.0625 27.625 -0.769531 27.53125 -0.53125 C 27.445312 -0.300781 27.3125 -0.113281 27.125 0.03125 L 22.046875 4.25 C 21.941406 4.351562 21.78125 4.441406 21.5625 4.515625 C 21.34375 4.597656 21.101562 4.640625 20.84375 4.640625 Z M 25.875 0 C 26.375 0 26.734375 -0.109375 26.953125 -0.328125 C 27.171875 -0.546875 27.28125 -0.90625 27.28125 -1.40625 L 27.28125 -6.046875 C 27.28125 -6.546875 27.171875 -6.90625 26.953125 -7.125 C 26.734375 -7.34375 26.375 -7.453125 25.875 -7.453125 L 18.03125 -7.453125 C 17.226562 -7.453125 16.628906 -7.601562 16.234375 -7.90625 C 15.847656 -8.207031 15.65625 -8.679688 15.65625 -9.328125 L 15.65625 -18.625 C 15.65625 -19.269531 15.847656 -19.753906 16.234375 -20.078125 C 16.628906 -20.398438 17.226562 -20.5625 18.03125 -20.5625 L 25.875 -20.5625 C 26.375 -20.5625 26.734375 -20.671875 26.953125 -20.890625 C 27.171875 -21.117188 27.28125 -21.476562 27.28125 -21.96875 L 27.28125 -26.703125 C 27.28125 -27.191406 27.171875 -27.546875 26.953125 -27.765625 C 26.734375 -27.992188 26.375 -28.109375 25.875 -28.109375 L 16.359375 -28.109375 C 13.097656 -28.109375 10.679688 -27.445312 9.109375 -26.125 C 7.535156 -24.8125 6.75 -22.800781 6.75 -20.09375 L 6.75 -7.96875 C 6.75 -5.257812 7.535156 -3.253906 9.109375 -1.953125 C 10.679688 -0.648438 13.097656 0 16.359375 0 Z M 23.734375 -3.90625 L 23.734375 -3.515625 L 17.21875 -3.515625 C 14.6875 -3.515625 13.007812 -3.90625 12.1875 -4.6875 C 11.375 -5.46875 10.96875 -6.753906 10.96875 -8.546875 L 10.96875 -19.484375 C 10.96875 -21.328125 11.382812 -22.640625 12.21875 -23.421875 C 13.050781 -24.203125 14.71875 -24.59375 17.21875 -24.59375 L 23.734375 -24.59375 L 23.734375 -24.203125 L 17.21875 -24.203125 C 14.925781 -24.203125 13.375 -23.84375 12.5625 -23.125 C 11.757812 -22.40625 11.359375 -21.191406 11.359375 -19.484375 L 11.359375 -8.546875 C 11.359375 -6.859375 11.75 -5.660156 12.53125 -4.953125 C 13.3125 -4.253906 14.875 -3.90625 17.21875 -3.90625 Z M 23.734375 -3.90625 "/></g></g></g><g fill="#000000" fill-opacity="1"><g transform="translate(99.150024, 36.350816)"><g><path d="M 11.390625 -3.515625 L 11.390625 -24.59375 L 11.78125 -24.59375 L 11.78125 -14.25 L 26.78125 -14.25 L 26.78125 -24.59375 L 27.171875 -24.59375 L 27.171875 -3.515625 L 26.78125 -3.515625 L 26.78125 -13.859375 L 11.78125 -13.859375 L 11.78125 -3.515625 Z M 14.640625 0 C 15.128906 0 15.484375 -0.109375 15.703125 -0.328125 C 15.929688 -0.546875 16.046875 -0.90625 16.046875 -1.40625 L 16.046875 -10.0625 L 22.5625 -10.0625 L 22.5625 -1.40625 C 22.5625 -0.90625 22.671875 -0.546875 22.890625 -0.328125 C 23.109375 -0.109375 23.46875 0 23.96875 0 L 30.015625 0 C 30.503906 0 30.859375 -0.109375 31.078125 -0.328125 C 31.304688 -0.546875 31.421875 -0.90625 31.421875 -1.40625 L 31.421875 -26.703125 C 31.421875 -27.191406 31.304688 -27.546875 31.078125 -27.765625 C 30.859375 -27.992188 30.503906 -28.109375 30.015625 -28.109375 L 23.96875 -28.109375 C 23.46875 -28.109375 23.109375 -27.992188 22.890625 -27.765625 C 22.671875 -27.546875 22.5625 -27.191406 22.5625 -26.703125 L 22.5625 -18.234375 L 16.046875 -18.234375 L 16.046875 -26.703125 C 16.046875 -27.191406 15.929688 -27.546875 15.703125 -27.765625 C 15.484375 -27.992188 15.128906 -28.109375 14.640625 -28.109375 L 8.59375 -28.109375 C 8.09375 -28.109375 7.734375 -27.992188 7.515625 -27.765625 C 7.296875 -27.546875 7.1875 -27.191406 7.1875 -26.703125 L 7.1875 -1.40625 C 7.1875 -0.90625 7.296875 -0.546875 7.515625 -0.328125 C 7.734375 -0.109375 8.09375 0 8.59375 0 Z M 15.890625 0.03125 L 10.8125 4.25 C 10.707031 4.351562 10.539062 4.441406 10.3125 4.515625 C 10.09375 4.597656 9.859375 4.640625 9.609375 4.640625 L 3.546875 4.640625 C 2.921875 4.640625 2.460938 4.492188 2.171875 4.203125 C 1.890625 3.921875 1.75 3.46875 1.75 2.84375 L 1.75 -22.4375 C 1.75 -22.78125 1.796875 -23.066406 1.890625 -23.296875 C 1.984375 -23.535156 2.117188 -23.734375 2.296875 -23.890625 L 7.34375 -28.140625 C 7.46875 -28.242188 7.640625 -28.328125 7.859375 -28.390625 C 8.085938 -28.460938 8.332031 -28.5 8.59375 -28.5 L 14.640625 -28.5 C 15.265625 -28.5 15.71875 -28.351562 16 -28.0625 C 16.289062 -27.78125 16.4375 -27.328125 16.4375 -26.703125 L 16.4375 -18.625 L 17.140625 -18.625 L 17.140625 -22.4375 C 17.140625 -22.78125 17.179688 -23.066406 17.265625 -23.296875 C 17.359375 -23.535156 17.5 -23.734375 17.6875 -23.890625 L 22.71875 -28.140625 C 22.84375 -28.242188 23.015625 -28.328125 23.234375 -28.390625 C 23.460938 -28.460938 23.707031 -28.5 23.96875 -28.5 L 30.015625 -28.5 C 30.640625 -28.5 31.09375 -28.351562 31.375 -28.0625 C 31.664062 -27.78125 31.8125 -27.328125 31.8125 -26.703125 L 31.8125 -1.40625 C 31.8125 -1.0625 31.765625 -0.769531 31.671875 -0.53125 C 31.578125 -0.300781 31.441406 -0.113281 31.265625 0.03125 L 26.1875 4.25 C 26.082031 4.351562 25.921875 4.441406 25.703125 4.515625 C 25.484375 4.597656 25.242188 4.640625 24.984375 4.640625 L 18.9375 4.640625 C 18.3125 4.640625 17.851562 4.492188 17.5625 4.203125 C 17.28125 3.921875 17.140625 3.46875 17.140625 2.84375 L 17.140625 -5.421875 L 16.4375 -5.421875 L 16.4375 -1.40625 C 16.4375 -1.0625 16.390625 -0.769531 16.296875 -0.53125 C 16.203125 -0.300781 16.066406 -0.113281 15.890625 0.03125 Z M 15.890625 0.03125 "/></g></g></g><g fill="#000000" fill-opacity="1"><g transform="translate(132.672554, 36.350816)"><g><path d="M 27.203125 -35.015625 L 27.203125 -36.734375 C 27.203125 -37.222656 27.09375 -37.578125 26.875 -37.796875 C 26.65625 -38.023438 26.296875 -38.140625 25.796875 -38.140625 L 22.25 -38.140625 C 21.800781 -38.140625 21.492188 -38.050781 21.328125 -37.875 C 21.160156 -37.707031 21.078125 -37.390625 21.078125 -36.921875 L 21.078125 -36.109375 C 21.078125 -35.742188 20.929688 -35.4375 20.640625 -35.1875 C 20.359375 -34.9375 19.738281 -34.8125 18.78125 -34.8125 C 17.8125 -34.8125 17.195312 -34.9375 16.9375 -35.1875 C 16.675781 -35.4375 16.546875 -35.742188 16.546875 -36.109375 L 16.546875 -36.921875 C 16.546875 -37.390625 16.460938 -37.707031 16.296875 -37.875 C 16.128906 -38.050781 15.835938 -38.140625 15.421875 -38.140625 L 11.671875 -38.140625 C 11.171875 -38.140625 10.8125 -38.023438 10.59375 -37.796875 C 10.375 -37.578125 10.265625 -37.222656 10.265625 -36.734375 L 10.265625 -35.015625 C 10.265625 -34.179688 10.382812 -33.414062 10.625 -32.71875 C 10.875 -32.03125 11.316406 -31.445312 11.953125 -30.96875 C 12.597656 -30.488281 13.46875 -30.109375 14.5625 -29.828125 C 15.65625 -29.554688 17.046875 -29.421875 18.734375 -29.421875 C 20.421875 -29.421875 21.8125 -29.554688 22.90625 -29.828125 C 24 -30.109375 24.863281 -30.488281 25.5 -30.96875 C 26.144531 -31.445312 26.585938 -32.03125 26.828125 -32.71875 C 27.078125 -33.414062 27.203125 -34.179688 27.203125 -35.015625 Z M 23.96875 -35.40625 L 24.359375 -35.40625 L 24.359375 -35.046875 C 24.359375 -34.679688 24.285156 -34.3125 24.140625 -33.9375 C 23.992188 -33.5625 23.722656 -33.222656 23.328125 -32.921875 C 22.941406 -32.617188 22.367188 -32.375 21.609375 -32.1875 C 20.859375 -32.007812 19.890625 -31.921875 18.703125 -31.921875 C 17.503906 -31.921875 16.539062 -32.007812 15.8125 -32.1875 C 15.082031 -32.375 14.523438 -32.617188 14.140625 -32.921875 C 13.765625 -33.222656 13.519531 -33.5625 13.40625 -33.9375 C 13.289062 -34.3125 13.234375 -34.679688 13.234375 -35.046875 L 13.234375 -35.40625 L 13.625 -35.40625 L 13.625 -35.046875 C 13.625 -34.347656 13.941406 -33.71875 14.578125 -33.15625 C 15.210938 -32.59375 16.585938 -32.3125 18.703125 -32.3125 C 20.804688 -32.3125 22.207031 -32.59375 22.90625 -33.15625 C 23.613281 -33.71875 23.96875 -34.347656 23.96875 -35.046875 Z M 11.125 -11.828125 L 11.125 -10.609375 L 26.34375 -10.609375 L 26.34375 -11.828125 C 26.34375 -12.523438 26.285156 -13.171875 26.171875 -13.765625 C 26.054688 -14.367188 25.90625 -14.929688 25.71875 -15.453125 L 23.03125 -21.8125 C 22.738281 -22.488281 22.4375 -23.054688 22.125 -23.515625 C 21.8125 -23.972656 21.289062 -24.203125 20.5625 -24.203125 L 16.75 -24.203125 C 15.96875 -24.203125 15.421875 -23.972656 15.109375 -23.515625 C 14.796875 -23.054688 14.507812 -22.503906 14.25 -21.859375 L 11.75 -15.453125 C 11.5625 -14.929688 11.410156 -14.367188 11.296875 -13.765625 C 11.179688 -13.171875 11.125 -12.523438 11.125 -11.828125 Z M 17.375 -19.90625 C 17.476562 -20.132812 17.585938 -20.300781 17.703125 -20.40625 C 17.816406 -20.507812 17.953125 -20.5625 18.109375 -20.5625 L 19.09375 -20.5625 C 19.25 -20.5625 19.382812 -20.507812 19.5 -20.40625 C 19.613281 -20.300781 19.722656 -20.132812 19.828125 -19.90625 L 21.65625 -13.96875 L 15.53125 -13.96875 Z M 26.34375 -3.515625 L 26.34375 -10.21875 L 11.125 -10.21875 L 11.125 -3.515625 L 10.734375 -3.515625 L 10.734375 -11.828125 C 10.734375 -12.554688 10.789062 -13.222656 10.90625 -13.828125 C 11.019531 -14.441406 11.179688 -15.035156 11.390625 -15.609375 L 13.890625 -22.015625 C 14.179688 -22.742188 14.507812 -23.351562 14.875 -23.84375 C 15.238281 -24.34375 15.863281 -24.59375 16.75 -24.59375 L 20.5625 -24.59375 C 21.425781 -24.59375 22.03125 -24.34375 22.375 -23.84375 C 22.726562 -23.351562 23.0625 -22.726562 23.375 -21.96875 L 26.078125 -15.609375 C 26.285156 -15.035156 26.445312 -14.441406 26.5625 -13.828125 C 26.675781 -13.222656 26.734375 -12.554688 26.734375 -11.828125 L 26.734375 -3.515625 Z M 15.140625 -1.40625 L 15.140625 -6.875 L 22.046875 -6.875 L 22.046875 -1.40625 C 22.046875 -0.90625 22.171875 -0.546875 22.421875 -0.328125 C 22.671875 -0.109375 23.054688 0 23.578125 0 L 29.46875 0 C 29.957031 0 30.3125 -0.109375 30.53125 -0.328125 C 30.757812 -0.546875 30.875 -0.90625 30.875 -1.40625 L 30.875 -11.703125 C 30.875 -12.484375 30.75 -13.378906 30.5 -14.390625 C 30.25 -15.410156 29.863281 -16.597656 29.34375 -17.953125 L 25.953125 -26.8125 C 25.796875 -27.257812 25.554688 -27.585938 25.234375 -27.796875 C 24.910156 -28.003906 24.5 -28.109375 24 -28.109375 L 13.5 -28.109375 C 12.976562 -28.109375 12.554688 -28.003906 12.234375 -27.796875 C 11.910156 -27.585938 11.671875 -27.257812 11.515625 -26.8125 L 8.125 -17.953125 C 7.601562 -16.597656 7.21875 -15.410156 6.96875 -14.390625 C 6.71875 -13.378906 6.59375 -12.484375 6.59375 -11.703125 L 6.59375 -1.40625 C 6.59375 -0.90625 6.703125 -0.546875 6.921875 -0.328125 C 7.148438 -0.109375 7.507812 0 8 0 L 13.734375 0 C 14.234375 0 14.59375 -0.109375 14.8125 -0.328125 C 15.03125 -0.546875 15.140625 -0.90625 15.140625 -1.40625 Z M 9.90625 4.25 C 9.8125 4.351562 9.648438 4.441406 9.421875 4.515625 C 9.203125 4.597656 8.960938 4.640625 8.703125 4.640625 L 2.96875 4.640625 C 2.34375 4.640625 1.882812 4.492188 1.59375 4.203125 C 1.3125 3.921875 1.171875 3.46875 1.171875 2.84375 L 1.171875 -7.453125 C 1.171875 -8.265625 1.289062 -9.179688 1.53125 -10.203125 C 1.78125 -11.234375 2.179688 -12.453125 2.734375 -13.859375 L 6.09375 -22.671875 C 6.164062 -22.910156 6.257812 -23.113281 6.375 -23.28125 C 6.5 -23.445312 6.625 -23.597656 6.75 -23.734375 L 6.796875 -23.765625 L 8.703125 -25.375 C 7.191406 -25.84375 6.171875 -26.550781 5.640625 -27.5 C 5.109375 -28.445312 4.84375 -29.53125 4.84375 -30.75 L 4.84375 -32.46875 C 4.84375 -32.8125 4.882812 -33.097656 4.96875 -33.328125 C 5.0625 -33.566406 5.203125 -33.765625 5.390625 -33.921875 L 10.421875 -38.171875 C 10.546875 -38.273438 10.71875 -38.359375 10.9375 -38.421875 C 11.164062 -38.492188 11.410156 -38.53125 11.671875 -38.53125 L 15.421875 -38.53125 C 15.960938 -38.53125 16.347656 -38.414062 16.578125 -38.1875 C 16.816406 -37.96875 16.9375 -37.546875 16.9375 -36.921875 L 16.9375 -36.109375 C 16.9375 -35.921875 16.988281 -35.753906 17.09375 -35.609375 C 17.195312 -35.472656 17.378906 -35.378906 17.640625 -35.328125 L 21.15625 -38.25 L 21.109375 -38.21875 C 21.210938 -38.320312 21.351562 -38.398438 21.53125 -38.453125 C 21.71875 -38.503906 21.957031 -38.53125 22.25 -38.53125 L 25.796875 -38.53125 C 26.421875 -38.53125 26.875 -38.382812 27.15625 -38.09375 C 27.445312 -37.8125 27.59375 -37.359375 27.59375 -36.734375 L 27.59375 -35.015625 C 27.59375 -34.148438 27.46875 -33.351562 27.21875 -32.625 C 26.976562 -31.894531 26.53125 -31.269531 25.875 -30.75 L 23.140625 -28.5 L 24 -28.5 C 24.601562 -28.5 25.09375 -28.375 25.46875 -28.125 C 25.84375 -27.875 26.125 -27.488281 26.3125 -26.96875 L 29.703125 -18.109375 C 30.242188 -16.703125 30.640625 -15.484375 30.890625 -14.453125 C 31.140625 -13.429688 31.265625 -12.515625 31.265625 -11.703125 L 31.265625 -1.40625 C 31.265625 -1.0625 31.21875 -0.769531 31.125 -0.53125 C 31.03125 -0.300781 30.894531 -0.113281 30.71875 0.03125 L 25.640625 4.25 C 25.535156 4.351562 25.375 4.441406 25.15625 4.515625 C 24.9375 4.597656 24.695312 4.640625 24.4375 4.640625 L 18.546875 4.640625 C 17.890625 4.640625 17.40625 4.488281 17.09375 4.1875 C 16.78125 3.894531 16.625 3.445312 16.625 2.84375 L 16.625 -2.21875 L 15.53125 -2.21875 L 15.53125 -1.40625 C 15.53125 -1.0625 15.484375 -0.769531 15.390625 -0.53125 C 15.304688 -0.300781 15.171875 -0.113281 14.984375 0.03125 Z M 9.90625 4.25 "/></g></g></g><g fill="#000000" fill-opacity="1"><g transform="translate(165.063336, 36.350816)"><g><path d="M 20.921875 -15.03125 C 21.390625 -15.03125 21.726562 -15.132812 21.9375 -15.34375 C 22.144531 -15.550781 22.46875 -15.992188 22.90625 -16.671875 L 27.671875 -23.921875 C 27.828125 -24.179688 28.003906 -24.359375 28.203125 -24.453125 C 28.398438 -24.546875 28.601562 -24.59375 28.8125 -24.59375 L 29.46875 -24.59375 C 29.832031 -24.59375 30.097656 -24.492188 30.265625 -24.296875 C 30.429688 -24.097656 30.515625 -23.789062 30.515625 -23.375 L 30.515625 -3.515625 L 30.125 -3.515625 L 30.125 -23.375 C 30.125 -23.582031 30.078125 -23.769531 29.984375 -23.9375 C 29.898438 -24.113281 29.726562 -24.203125 29.46875 -24.203125 L 28.890625 -24.203125 C 28.703125 -24.203125 28.539062 -24.175781 28.40625 -24.125 C 28.28125 -24.070312 28.140625 -23.914062 27.984375 -23.65625 L 23.21875 -16.46875 C 22.75 -15.769531 22.390625 -15.289062 22.140625 -15.03125 C 21.898438 -14.769531 21.492188 -14.640625 20.921875 -14.640625 C 20.347656 -14.640625 19.9375 -14.769531 19.6875 -15.03125 C 19.445312 -15.289062 19.09375 -15.769531 18.625 -16.46875 L 13.859375 -23.65625 C 13.703125 -23.914062 13.550781 -24.070312 13.40625 -24.125 C 13.257812 -24.175781 13.097656 -24.203125 12.921875 -24.203125 L 12.328125 -24.203125 C 12.066406 -24.203125 11.894531 -24.113281 11.8125 -23.9375 C 11.738281 -23.769531 11.703125 -23.582031 11.703125 -23.375 L 11.703125 -3.515625 L 11.3125 -3.515625 L 11.3125 -23.375 C 11.3125 -23.789062 11.394531 -24.097656 11.5625 -24.296875 C 11.738281 -24.492188 11.992188 -24.59375 12.328125 -24.59375 L 13 -24.59375 C 13.207031 -24.59375 13.414062 -24.546875 13.625 -24.453125 C 13.832031 -24.359375 14.015625 -24.179688 14.171875 -23.921875 L 18.9375 -16.671875 C 19.375 -15.992188 19.695312 -15.550781 19.90625 -15.34375 C 20.113281 -15.132812 20.453125 -15.03125 20.921875 -15.03125 Z M 14.40625 0 C 14.894531 0 15.25 -0.109375 15.46875 -0.328125 C 15.695312 -0.546875 15.8125 -0.90625 15.8125 -1.40625 L 15.8125 -15.140625 L 18.109375 -10.890625 C 18.347656 -10.441406 18.628906 -10.117188 18.953125 -9.921875 C 19.273438 -9.734375 19.679688 -9.640625 20.171875 -9.640625 L 21.734375 -9.640625 C 22.234375 -9.640625 22.644531 -9.734375 22.96875 -9.921875 C 23.289062 -10.117188 23.570312 -10.441406 23.8125 -10.890625 L 26.109375 -15.140625 L 26.109375 -1.40625 C 26.109375 -0.90625 26.21875 -0.546875 26.4375 -0.328125 C 26.664062 -0.109375 27.023438 0 27.515625 0 L 33.53125 0 C 34.019531 0 34.375 -0.109375 34.59375 -0.328125 C 34.820312 -0.546875 34.9375 -0.90625 34.9375 -1.40625 L 34.9375 -26.703125 C 34.9375 -27.191406 34.820312 -27.546875 34.59375 -27.765625 C 34.375 -27.992188 34.019531 -28.109375 33.53125 -28.109375 L 27.203125 -28.109375 C 26.785156 -28.109375 26.441406 -28.015625 26.171875 -27.828125 C 25.898438 -27.648438 25.644531 -27.351562 25.40625 -26.9375 L 21.9375 -20.5625 C 21.800781 -20.332031 21.6875 -20.164062 21.59375 -20.0625 C 21.507812 -19.957031 21.390625 -19.90625 21.234375 -19.90625 L 20.875 -19.90625 C 20.71875 -19.90625 20.59375 -19.957031 20.5 -20.0625 C 20.414062 -20.164062 20.304688 -20.332031 20.171875 -20.5625 L 16.671875 -26.9375 C 16.429688 -27.351562 16.175781 -27.648438 15.90625 -27.828125 C 15.632812 -28.015625 15.289062 -28.109375 14.875 -28.109375 L 8.59375 -28.109375 C 8.09375 -28.109375 7.734375 -27.992188 7.515625 -27.765625 C 7.296875 -27.546875 7.1875 -27.191406 7.1875 -26.703125 L 7.1875 -1.40625 C 7.1875 -0.90625 7.296875 -0.546875 7.515625 -0.328125 C 7.734375 -0.109375 8.09375 0 8.59375 0 Z M 15.65625 0.03125 L 10.578125 4.25 C 10.472656 4.351562 10.3125 4.441406 10.09375 4.515625 C 9.875 4.597656 9.632812 4.640625 9.375 4.640625 L 3.546875 4.640625 C 2.921875 4.640625 2.460938 4.492188 2.171875 4.203125 C 1.890625 3.921875 1.75 3.46875 1.75 2.84375 L 1.75 -22.4375 C 1.75 -22.78125 1.796875 -23.066406 1.890625 -23.296875 C 1.984375 -23.535156 2.117188 -23.734375 2.296875 -23.890625 L 7.34375 -28.140625 C 7.46875 -28.242188 7.640625 -28.328125 7.859375 -28.390625 C 8.085938 -28.460938 8.332031 -28.5 8.59375 -28.5 L 14.875 -28.5 C 15.363281 -28.5 15.769531 -28.394531 16.09375 -28.1875 C 16.425781 -27.976562 16.734375 -27.625 17.015625 -27.125 L 19.671875 -22.25 L 20.015625 -22.875 C 20.117188 -23.050781 20.226562 -23.222656 20.34375 -23.390625 C 20.46875 -23.566406 20.59375 -23.707031 20.71875 -23.8125 L 25.765625 -28.03125 C 25.972656 -28.1875 26.1875 -28.300781 26.40625 -28.375 C 26.625 -28.457031 26.890625 -28.5 27.203125 -28.5 L 33.53125 -28.5 C 34.15625 -28.5 34.609375 -28.351562 34.890625 -28.0625 C 35.179688 -27.78125 35.328125 -27.328125 35.328125 -26.703125 L 35.328125 -1.40625 C 35.328125 -1.0625 35.28125 -0.769531 35.1875 -0.53125 C 35.09375 -0.300781 34.957031 -0.113281 34.78125 0.03125 L 29.703125 4.25 C 29.597656 4.351562 29.4375 4.441406 29.21875 4.515625 C 29 4.597656 28.757812 4.640625 28.5 4.640625 L 22.484375 4.640625 C 21.828125 4.640625 21.363281 4.492188 21.09375 4.203125 C 20.820312 3.921875 20.6875 3.46875 20.6875 2.84375 L 20.6875 -7.453125 L 18.390625 -5.546875 C 18.179688 -5.359375 17.9375 -5.21875 17.65625 -5.125 C 17.382812 -5.039062 17.066406 -5 16.703125 -5 L 16.203125 -5 L 16.203125 -1.40625 C 16.203125 -1.0625 16.15625 -0.769531 16.0625 -0.53125 C 15.96875 -0.300781 15.832031 -0.113281 15.65625 0.03125 Z M 15.65625 0.03125 "/></g></g></g><g fill="#000000" fill-opacity="1"><g transform="translate(202.098124, 36.350816)"><g/></g></g><g fill="#000000" fill-opacity="1"><g transform="translate(214.781272, 36.350816)"><g><path d="M 20.84375 4.640625 L 11.3125 4.640625 C 7.90625 4.640625 5.390625 3.753906 3.765625 1.984375 C 2.140625 0.222656 1.328125 -2.0625 1.328125 -4.875 L 1.328125 -15.84375 C 1.328125 -17.28125 1.535156 -18.523438 1.953125 -19.578125 C 2.367188 -20.628906 2.976562 -21.503906 3.78125 -22.203125 L 8.859375 -26.46875 C 9.660156 -27.144531 10.6875 -27.648438 11.9375 -27.984375 C 13.1875 -28.328125 14.660156 -28.5 16.359375 -28.5 L 25.875 -28.5 C 26.5 -28.5 26.953125 -28.351562 27.234375 -28.0625 C 27.523438 -27.78125 27.671875 -27.328125 27.671875 -26.703125 L 27.671875 -21.96875 C 27.671875 -21.632812 27.625 -21.347656 27.53125 -21.109375 C 27.445312 -20.878906 27.3125 -20.6875 27.125 -20.53125 L 22.046875 -16.3125 C 21.941406 -16.207031 21.78125 -16.113281 21.5625 -16.03125 C 21.34375 -15.957031 21.101562 -15.921875 20.84375 -15.921875 L 16.046875 -15.921875 L 16.046875 -9.328125 C 16.046875 -8.785156 16.210938 -8.398438 16.546875 -8.171875 C 16.890625 -7.953125 17.382812 -7.84375 18.03125 -7.84375 L 25.875 -7.84375 C 26.5 -7.84375 26.953125 -7.695312 27.234375 -7.40625 C 27.523438 -7.125 27.671875 -6.671875 27.671875 -6.046875 L 27.671875 -1.40625 C 27.671875 -1.0625 27.625 -0.769531 27.53125 -0.53125 C 27.445312 -0.300781 27.3125 -0.113281 27.125 0.03125 L 22.046875 4.25 C 21.941406 4.351562 21.78125 4.441406 21.5625 4.515625 C 21.34375 4.597656 21.101562 4.640625 20.84375 4.640625 Z M 25.875 0 C 26.375 0 26.734375 -0.109375 26.953125 -0.328125 C 27.171875 -0.546875 27.28125 -0.90625 27.28125 -1.40625 L 27.28125 -6.046875 C 27.28125 -6.546875 27.171875 -6.90625 26.953125 -7.125 C 26.734375 -7.34375 26.375 -7.453125 25.875 -7.453125 L 18.03125 -7.453125 C 17.226562 -7.453125 16.628906 -7.601562 16.234375 -7.90625 C 15.847656 -8.207031 15.65625 -8.679688 15.65625 -9.328125 L 15.65625 -18.625 C 15.65625 -19.269531 15.847656 -19.753906 16.234375 -20.078125 C 16.628906 -20.398438 17.226562 -20.5625 18.03125 -20.5625 L 25.875 -20.5625 C 26.375 -20.5625 26.734375 -20.671875 26.953125 -20.890625 C 27.171875 -21.117188 27.28125 -21.476562 27.28125 -21.96875 L 27.28125 -26.703125 C 27.28125 -27.191406 27.171875 -27.546875 26.953125 -27.765625 C 26.734375 -27.992188 26.375 -28.109375 25.875 -28.109375 L 16.359375 -28.109375 C 13.097656 -28.109375 10.679688 -27.445312 9.109375 -26.125 C 7.535156 -24.8125 6.75 -22.800781 6.75 -20.09375 L 6.75 -7.96875 C 6.75 -5.257812 7.535156 -3.253906 9.109375 -1.953125 C 10.679688 -0.648438 13.097656 0 16.359375 0 Z M 23.734375 -3.90625 L 23.734375 -3.515625 L 17.21875 -3.515625 C 14.6875 -3.515625 13.007812 -3.90625 12.1875 -4.6875 C 11.375 -5.46875 10.96875 -6.753906 10.96875 -8.546875 L 10.96875 -19.484375 C 10.96875 -21.328125 11.382812 -22.640625 12.21875 -23.421875 C 13.050781 -24.203125 14.71875 -24.59375 17.21875 -24.59375 L 23.734375 -24.59375 L 23.734375 -24.203125 L 17.21875 -24.203125 C 14.925781 -24.203125 13.375 -23.84375 12.5625 -23.125 C 11.757812 -22.40625 11.359375 -21.191406 11.359375 -19.484375 L 11.359375 -8.546875 C 11.359375 -6.859375 11.75 -5.660156 12.53125 -4.953125 C 13.3125 -4.253906 14.875 -3.90625 17.21875 -3.90625 Z M 23.734375 -3.90625 "/></g></g></g><g fill="#000000" fill-opacity="1"><g transform="translate(243.1915, 36.350816)"><g><path d="M 11.390625 -3.515625 L 11.390625 -24.59375 L 11.78125 -24.59375 L 11.78125 -14.25 L 26.78125 -14.25 L 26.78125 -24.59375 L 27.171875 -24.59375 L 27.171875 -3.515625 L 26.78125 -3.515625 L 26.78125 -13.859375 L 11.78125 -13.859375 L 11.78125 -3.515625 Z M 14.640625 0 C 15.128906 0 15.484375 -0.109375 15.703125 -0.328125 C 15.929688 -0.546875 16.046875 -0.90625 16.046875 -1.40625 L 16.046875 -10.0625 L 22.5625 -10.0625 L 22.5625 -1.40625 C 22.5625 -0.90625 22.671875 -0.546875 22.890625 -0.328125 C 23.109375 -0.109375 23.46875 0 23.96875 0 L 30.015625 0 C 30.503906 0 30.859375 -0.109375 31.078125 -0.328125 C 31.304688 -0.546875 31.421875 -0.90625 31.421875 -1.40625 L 31.421875 -26.703125 C 31.421875 -27.191406 31.304688 -27.546875 31.078125 -27.765625 C 30.859375 -27.992188 30.503906 -28.109375 30.015625 -28.109375 L 23.96875 -28.109375 C 23.46875 -28.109375 23.109375 -27.992188 22.890625 -27.765625 C 22.671875 -27.546875 22.5625 -27.191406 22.5625 -26.703125 L 22.5625 -18.234375 L 16.046875 -18.234375 L 16.046875 -26.703125 C 16.046875 -27.191406 15.929688 -27.546875 15.703125 -27.765625 C 15.484375 -27.992188 15.128906 -28.109375 14.640625 -28.109375 L 8.59375 -28.109375 C 8.09375 -28.109375 7.734375 -27.992188 7.515625 -27.765625 C 7.296875 -27.546875 7.1875 -27.191406 7.1875 -26.703125 L 7.1875 -1.40625 C 7.1875 -0.90625 7.296875 -0.546875 7.515625 -0.328125 C 7.734375 -0.109375 8.09375 0 8.59375 0 Z M 15.890625 0.03125 L 10.8125 4.25 C 10.707031 4.351562 10.539062 4.441406 10.3125 4.515625 C 10.09375 4.597656 9.859375 4.640625 9.609375 4.640625 L 3.546875 4.640625 C 2.921875 4.640625 2.460938 4.492188 2.171875 4.203125 C 1.890625 3.921875 1.75 3.46875 1.75 2.84375 L 1.75 -22.4375 C 1.75 -22.78125 1.796875 -23.066406 1.890625 -23.296875 C 1.984375 -23.535156 2.117188 -23.734375 2.296875 -23.890625 L 7.34375 -28.140625 C 7.46875 -28.242188 7.640625 -28.328125 7.859375 -28.390625 C 8.085938 -28.460938 8.332031 -28.5 8.59375 -28.5 L 14.640625 -28.5 C 15.265625 -28.5 15.71875 -28.351562 16 -28.0625 C 16.289062 -27.78125 16.4375 -27.328125 16.4375 -26.703125 L 16.4375 -18.625 L 17.140625 -18.625 L 17.140625 -22.4375 C 17.140625 -22.78125 17.179688 -23.066406 17.265625 -23.296875 C 17.359375 -23.535156 17.5 -23.734375 17.6875 -23.890625 L 22.71875 -28.140625 C 22.84375 -28.242188 23.015625 -28.328125 23.234375 -28.390625 C 23.460938 -28.460938 23.707031 -28.5 23.96875 -28.5 L 30.015625 -28.5 C 30.640625 -28.5 31.09375 -28.351562 31.375 -28.0625 C 31.664062 -27.78125 31.8125 -27.328125 31.8125 -26.703125 L 31.8125 -1.40625 C 31.8125 -1.0625 31.765625 -0.769531 31.671875 -0.53125 C 31.578125 -0.300781 31.441406 -0.113281 31.265625 0.03125 L 26.1875 4.25 C 26.082031 4.351562 25.921875 4.441406 25.703125 4.515625 C 25.484375 4.597656 25.242188 4.640625 24.984375 4.640625 L 18.9375 4.640625 C 18.3125 4.640625 17.851562 4.492188 17.5625 4.203125 C 17.28125 3.921875 17.140625 3.46875 17.140625 2.84375 L 17.140625 -5.421875 L 16.4375 -5.421875 L 16.4375 -1.40625 C 16.4375 -1.0625 16.390625 -0.769531 16.296875 -0.53125 C 16.203125 -0.300781 16.066406 -0.113281 15.890625 0.03125 Z M 15.890625 0.03125 "/></g></g></g><g fill="#000000" fill-opacity="1"><g transform="translate(276.71403, 36.350816)"><g><path d="M 19.546875 4.640625 L 2.921875 4.640625 C 2.296875 4.640625 1.835938 4.492188 1.546875 4.203125 C 1.265625 3.921875 1.125 3.46875 1.125 2.84375 L 1.125 -1.796875 C 1.125 -2.128906 1.171875 -2.410156 1.265625 -2.640625 C 1.359375 -2.878906 1.492188 -3.078125 1.671875 -3.234375 L 6.40625 -7.21875 L 6.40625 -15.921875 L 2.921875 -15.921875 C 2.296875 -15.921875 1.835938 -16.0625 1.546875 -16.34375 C 1.265625 -16.632812 1.125 -17.09375 1.125 -17.71875 L 1.125 -22.4375 C 1.125 -22.78125 1.171875 -23.066406 1.265625 -23.296875 C 1.359375 -23.535156 1.492188 -23.734375 1.671875 -23.890625 L 6.71875 -28.140625 C 6.738281 -28.171875 6.753906 -28.1875 6.765625 -28.1875 C 6.785156 -28.1875 6.796875 -28.195312 6.796875 -28.21875 L 6.75 -28.578125 C 6.695312 -28.804688 6.703125 -29.003906 6.765625 -29.171875 C 6.835938 -29.335938 6.925781 -29.472656 7.03125 -29.578125 L 8.515625 -30.828125 L 6.25 -30.828125 C 5.851562 -30.828125 5.5625 -30.914062 5.375 -31.09375 C 5.195312 -31.28125 5.109375 -31.570312 5.109375 -31.96875 L 5.109375 -34.8125 C 5.109375 -35.019531 5.140625 -35.195312 5.203125 -35.34375 C 5.273438 -35.488281 5.363281 -35.613281 5.46875 -35.71875 L 10.5 -39.96875 C 10.601562 -40.039062 10.710938 -40.097656 10.828125 -40.140625 C 10.941406 -40.179688 11.09375 -40.203125 11.28125 -40.203125 L 17.84375 -40.203125 C 19.289062 -40.203125 20.414062 -39.820312 21.21875 -39.0625 C 22.03125 -38.3125 22.4375 -37.234375 22.4375 -35.828125 L 22.4375 -33.328125 C 22.4375 -32.628906 22.332031 -32.050781 22.125 -31.59375 C 21.914062 -31.132812 21.644531 -30.75 21.3125 -30.4375 L 19.015625 -28.5 L 24.59375 -28.5 C 25.21875 -28.5 25.671875 -28.351562 25.953125 -28.0625 C 26.242188 -27.78125 26.390625 -27.328125 26.390625 -26.703125 L 26.390625 -21.96875 C 26.390625 -21.632812 26.34375 -21.347656 26.25 -21.109375 C 26.15625 -20.878906 26.019531 -20.6875 25.84375 -20.53125 L 21.1875 -16.625 L 21.1875 -7.84375 L 24.59375 -7.84375 C 25.21875 -7.84375 25.671875 -7.695312 25.953125 -7.40625 C 26.242188 -7.125 26.390625 -6.671875 26.390625 -6.046875 L 26.390625 -1.40625 C 26.390625 -1.0625 26.34375 -0.769531 26.25 -0.53125 C 26.15625 -0.300781 26.019531 -0.113281 25.84375 0.03125 L 20.765625 4.25 C 20.660156 4.351562 20.492188 4.441406 20.265625 4.515625 C 20.046875 4.597656 19.804688 4.640625 19.546875 4.640625 Z M 18.890625 -29.9375 C 19.847656 -30.0625 20.613281 -30.367188 21.1875 -30.859375 C 21.757812 -31.359375 22.046875 -32.179688 22.046875 -33.328125 L 22.046875 -35.828125 C 22.046875 -37.128906 21.675781 -38.117188 20.9375 -38.796875 C 20.195312 -39.472656 19.164062 -39.8125 17.84375 -39.8125 L 11.28125 -39.8125 C 11.019531 -39.8125 10.828125 -39.75 10.703125 -39.625 C 10.585938 -39.507812 10.53125 -39.320312 10.53125 -39.0625 L 10.53125 -36.21875 C 10.53125 -35.957031 10.585938 -35.769531 10.703125 -35.65625 C 10.828125 -35.539062 11.019531 -35.484375 11.28125 -35.484375 L 16.3125 -35.484375 C 16.519531 -35.484375 16.695312 -35.4375 16.84375 -35.34375 C 16.988281 -35.25 17.0625 -35.113281 17.0625 -34.9375 C 17.0625 -34.695312 17 -34.53125 16.875 -34.4375 C 16.757812 -34.351562 16.570312 -34.296875 16.3125 -34.265625 L 12.84375 -33.71875 C 12.582031 -33.695312 12.398438 -33.617188 12.296875 -33.484375 C 12.191406 -33.359375 12.148438 -33.164062 12.171875 -32.90625 L 12.609375 -29.8125 C 12.628906 -29.550781 12.695312 -29.375 12.8125 -29.28125 C 12.9375 -29.195312 13.128906 -29.171875 13.390625 -29.203125 Z M 14.359375 -31.421875 L 14.328125 -31.8125 L 18.078125 -32.359375 C 18.460938 -32.410156 18.769531 -32.554688 19 -32.796875 C 19.238281 -33.046875 19.359375 -33.445312 19.359375 -34 L 19.359375 -35.953125 C 19.359375 -36.546875 19.195312 -36.945312 18.875 -37.15625 C 18.550781 -37.363281 18.191406 -37.46875 17.796875 -37.46875 L 12.484375 -37.46875 L 12.484375 -37.859375 L 17.796875 -37.859375 C 18.296875 -37.859375 18.742188 -37.726562 19.140625 -37.46875 C 19.546875 -37.207031 19.75 -36.703125 19.75 -35.953125 L 19.75 -34 C 19.75 -33.269531 19.585938 -32.765625 19.265625 -32.484375 C 18.941406 -32.210938 18.570312 -32.050781 18.15625 -32 Z M 7.96875 0 L 24.59375 0 C 25.082031 0 25.4375 -0.109375 25.65625 -0.328125 C 25.882812 -0.546875 26 -0.90625 26 -1.40625 L 26 -6.046875 C 26 -6.546875 25.882812 -6.90625 25.65625 -7.125 C 25.4375 -7.34375 25.082031 -7.453125 24.59375 -7.453125 L 20.796875 -7.453125 L 20.796875 -20.5625 L 24.59375 -20.5625 C 25.082031 -20.5625 25.4375 -20.671875 25.65625 -20.890625 C 25.882812 -21.117188 26 -21.476562 26 -21.96875 L 26 -26.703125 C 26 -27.191406 25.882812 -27.546875 25.65625 -27.765625 C 25.4375 -27.992188 25.082031 -28.109375 24.59375 -28.109375 L 7.96875 -28.109375 C 7.46875 -28.109375 7.109375 -27.992188 6.890625 -27.765625 C 6.671875 -27.546875 6.5625 -27.191406 6.5625 -26.703125 L 6.5625 -21.96875 C 6.5625 -21.476562 6.671875 -21.117188 6.890625 -20.890625 C 7.109375 -20.671875 7.46875 -20.5625 7.96875 -20.5625 L 11.828125 -20.5625 L 11.828125 -7.453125 L 7.96875 -7.453125 C 7.46875 -7.453125 7.109375 -7.34375 6.890625 -7.125 C 6.671875 -6.90625 6.5625 -6.546875 6.5625 -6.046875 L 6.5625 -1.40625 C 6.5625 -0.90625 6.671875 -0.546875 6.890625 -0.328125 C 7.109375 -0.109375 7.46875 0 7.96875 0 Z M 22.484375 -3.515625 L 10.0625 -3.515625 L 10.0625 -3.90625 L 16.125 -3.90625 L 16.125 -24.203125 L 10.0625 -24.203125 L 10.0625 -24.59375 L 22.484375 -24.59375 L 22.484375 -24.203125 L 16.515625 -24.203125 L 16.515625 -3.90625 L 22.484375 -3.90625 Z M 22.484375 -3.515625 "/></g></g></g></svg>